<svg width="38" height="37" viewBox="0 0 38 37" fill="none" xmlns="http://www.w3.org/2000/svg">
<path fill-rule="evenodd" clip-rule="evenodd" d="M19 1.90735e-06C29.4934 1.90735e-06 38 8.09097 38 18.0717V36.1434H19C8.50659 36.1434 0 28.0524 0 18.0717C-2.41597e-06 8.09097 8.50659 1.90735e-06 19 1.90735e-06Z" fill="#918EF4"/>
<path fill-rule="evenodd" clip-rule="evenodd" d="M9.93073 18.4241V18.1879C11.4621 18.0403 12.2107 17.297 12.2107 15.8693V13.2652C12.2107 11.6797 12.8048 11.0364 14.2735 11.0364H14.6896V9.63823H14.1196C11.661 9.63823 10.5033 10.7382 10.5033 13.0465V15.2549C10.5033 16.8404 9.93326 17.3633 8.2334 17.3633V19.2457C9.93073 19.2457 10.5033 19.7704 10.5033 21.3541V23.5625C10.5033 25.8708 11.6597 26.9708 14.1171 26.9708H14.6871V25.5762H14.271C12.8023 25.5762 12.2082 24.9329 12.2082 23.3474V20.7427C12.2114 19.3162 11.4634 18.5729 9.93073 18.4241ZM27.8671 18.1879V18.4241C26.3357 18.5735 25.5871 19.3168 25.5871 20.7427V23.348C25.5871 24.9335 24.993 25.5768 23.5243 25.5768H23.1082V26.9738H23.6782C26.1356 26.9738 27.292 25.8738 27.292 23.5655V21.3565C27.292 19.771 27.862 19.2481 29.5619 19.2481V17.3645C27.8646 17.3645 27.292 16.8398 27.292 15.2561V13.0465C27.2927 10.7382 26.1343 9.63823 23.6789 9.63823H23.1089V11.0352H23.525C24.9937 11.0352 25.5877 11.6785 25.5877 13.264V15.8693C25.5877 17.2952 26.337 18.0379 27.8677 18.1879H27.8671Z" fill="white"/>
<path fill-rule="evenodd" clip-rule="evenodd" d="M19.3163 16.2645C20.5405 16.2645 21.5329 17.2085 21.5329 18.3729V20.4812H19.3163C18.092 20.4812 17.0996 19.5373 17.0996 18.3729C17.0996 17.2085 18.092 16.2645 19.3163 16.2645Z" fill="white"/>
</svg>
