<svg width="20.000000" height="20.000000" viewBox="0 0 20 20" fill="none" xmlns="http://www.w3.org/2000/svg" xmlns:xlink="http://www.w3.org/1999/xlink">
	<desc>
			Created with Pixso.
	</desc>
	<defs/>
	<path id="Vector" d="M11.76 3.63C12.65 3.8 13.47 4.23 14.11 4.87C14.75 5.51 15.18 6.33 15.36 7.21M11.76 0C13.61 0.2 15.33 1.02 16.64 2.33C17.96 3.64 18.79 5.36 19 7.2M18.09 17.17C18.09 17.42 18.03 17.68 17.93 17.91C17.83 18.14 17.68 18.35 17.5 18.52C17.31 18.69 17.09 18.82 16.85 18.9C16.61 18.98 16.35 19.01 16.1 18.99C13.3 18.68 10.61 17.73 8.25 16.2C6.05 14.81 4.19 12.95 2.79 10.75C1.26 8.38 0.3 5.69 0 2.88C-0.02 2.63 0.01 2.38 0.09 2.14C0.17 1.9 0.3 1.68 0.47 1.49C0.64 1.31 0.85 1.16 1.08 1.06C1.31 0.96 1.56 0.9 1.81 0.9L4.54 0.9C4.98 0.9 5.41 1.05 5.75 1.34C6.08 1.63 6.3 2.03 6.36 2.46C6.48 3.34 6.69 4.19 7 5.02C7.12 5.34 7.15 5.69 7.07 6.03C7 6.37 6.83 6.68 6.59 6.93L5.43 8.08C6.73 10.36 8.61 12.24 10.89 13.53L12.05 12.38C12.29 12.13 12.61 11.97 12.95 11.89C13.29 11.82 13.64 11.85 13.96 11.97C14.79 12.28 15.65 12.49 16.52 12.61C16.96 12.67 17.37 12.89 17.65 13.23C17.94 13.57 18.1 14 18.09 14.45L18.09 17.17Z" stroke="#999999" stroke-opacity="1.000000" stroke-width="1.500000" stroke-linejoin="round"/>
</svg>
