<svg width="4.000000" height="20.000000" viewBox="0 0 4 20" fill="none" xmlns="http://www.w3.org/2000/svg" xmlns:xlink="http://www.w3.org/1999/xlink">
	<desc>
			Created with Pixso.
	</desc>
	<defs/>
	<path id="..." d="M1.75 3.04C0.69 3.04 -0.17 2.18 -0.17 1.13C-0.17 0.07 0.69 -0.79 1.75 -0.79C2.8 -0.79 3.66 0.07 3.66 1.13C3.66 2.18 2.8 3.04 1.75 3.04ZM1.75 11.31C0.69 11.31 -0.17 10.45 -0.17 9.39C-0.17 8.34 0.69 7.48 1.75 7.48C2.8 7.48 3.66 8.34 3.66 9.39C3.66 10.45 2.8 11.31 1.75 11.31ZM1.75 19.58C0.69 19.58 -0.17 18.71 -0.17 17.66C-0.17 16.61 0.69 15.75 1.75 15.75C2.8 15.75 3.66 16.61 3.66 17.66C3.66 18.71 2.8 19.58 1.75 19.58Z" fill="#999999" fill-opacity="1.000000" fill-rule="evenodd"/>
</svg>
